#!OML:ASF F:\VICON\USERDATA\INSTALL\rory3\rory3.ASF
:FULLY-SPECIFIED
:DEGREES
37
root 0.4976184776715884 18.592239860444682 10.26164013272987 6.1189793346103425 -2.175600260855729 1.135616294045263
lfemur 10.994713505821721 -2.764116568237395 -28.50944256040834
ltibia 19.669267626529546
lfoot 1.962394693779487 -11.436094182806038
ltoes -13.14184961934911
rfemur -46.1286819067838 2.10024565808557 23.670655364672132
rtibia 42.3706225346472
rfoot 9.356639778408699 -0.9606586587677333
rtoes -8.327819383615939
lowerback 12.834704737396644 -1.558933267260359 -2.4492420515790063
upperback -1.4711873665236044 -1.6643054081632946 1.3453751550156097
thorax -9.343848172124806 -0.4771176132163163 2.4384433441369935
lowerneck -20.21286082645463 -3.424542660319291 -2.2366605257198313
upperneck 17.228255240104087 -5.458357698433058 2.4329328253386278
head 8.602245649993923 -2.4411618154210735 0.5387893011733892
lclavicle -1.952177854807592e-15 1.1013510665844011e-15
lhumerus -37.79813898568172 -10.507160532424255 95.54373059144628
lradius 118.87853685037429
lwrist 46.64436635590844
lhand -17.188465689771174 4.865607662984749
lfingers 7.125020000000001
lthumb 8.838688163106974 35.06674883700447
rclavicle -1.9521588894138984e-15 1.1013659668396155e-15
rhumerus -62.21212388253103 11.869247350873751 -101.44792906891328
rradius 106.77524716567144
rwrist -16.013133247735876
rhand -24.108535198123867 -157.02703202154626
rfingers 7.125020000000001
rthumb 1.9234227848961267 12.57198459748933
38
root 0.511192540728896 18.613019174970127 11.058995688344343 5.974250121596372 -2.1084082646457434 1.0833165856059375
lfemur 10.402773574105307 -3.0798663819949326 -28.802961204613162
ltibia 24.676057216972445
lfoot 3.359403671526861 -12.54182884656359
ltoes -11.719901469438177
rfemur -45.09360812216718 1.7876620203454232 23.67449222431649
rtibia 38.00524491414157
rfoot 9.65339526392696 -0.890246833006846
rtoes -8.572156768841909
lowerback 12.642569776998545 -1.6770636217198192 -2.3211222819069905
upperback -1.6846646571347903 -1.649104527119129 1.6185999821177468
thorax -9.238128664840248 -0.5046843778633651 2.537505649858169
lowerneck -19.922900330013757 -3.309870617982923 -2.206685405891496
upperneck 17.223317107084824 -5.3933618342031515 2.4484799233991636
head 8.678369995997945 -2.340446369432792 0.542325736457259
lclavicle -1.9521778548031525e-15 1.101351066587889e-15
lhumerus -37.27341459262848 -10.835268845546352 96.172498961928
lradius 118.54301488423569
lwrist 46.61798782851653
lhand -16.961587260882645 4.890097419254027
lfingers 7.125020000000001
lthumb 8.965388315848873 34.796343782976436
rclavicle -1.9521588893603647e-15 1.1013659668816746e-15
rhumerus -62.24108524621782 10.781953544438727 -100.7189972251075
rradius 107.24792840817801
rwrist -16.3100304875911
rhand -24.443526731553252 -146.86901462914722
rfingers 7.125020000000001
rthumb 1.5420803535617564 14.105643108981191
39
root 0.5298541973357841 18.615042411360353 12.586354202824216 5.621927139770335 -2.0412246411436366 1.0502686011471898
lfemur 8.636992123568753 -3.0039937981948825 -28.757841867805325
ltibia 31.512868196268975
lfoot 3.356420697965584 -13.646399347944282
ltoes -10.663235749270093
rfemur -42.41382165898399 1.1738364407078072 23.836331482959757
rtibia 36.1949336296137
rfoot 9.9099608544218 -0.60431625599323
rtoes -8.675155480673522
lowerback 12.651356765382676 -1.720475202587452 -2.253700428622639
upperback -1.7432104076658312 -1.5807282275744103 1.7635243227563802
thorax -9.168393417173304 -0.525854868566001 2.552928784593594
lowerneck -20.00726977206539 -3.4193684336789554 -2.215558096717833
upperneck 17.133371121842178 -5.379441316130402 2.4786016485925595
head 8.671836687216077 -2.279849083438971 0.5477419412710042
lclavicle -1.95217785479887e-15 1.1013510665912536e-15
lhumerus -37.60565832993251 -11.55815971590356 96.46007976095902
lradius 117.93776106712302
lwrist 46.36845538573239
lhand -16.92577179434355 4.885938104497627
lfingers 7.125020000000001
lthumb 9.026076186898687 34.647987356422114
rclavicle -1.952158889295381e-15 1.1013659669327293e-15
rhumerus -61.936033243869545 9.697094142119372 -99.9693991150493
rradius 107.73161469404646
rwrist -16.363511718832015
rhand -24.29263623755414 -144.66106802957324
rfingers 7.125020000000001
rthumb 2.096458306974922 16.16829247973694
40
root 0.5334669298650022 18.50604186348213 12.504109496244801 4.51655497467231 -2.765323543269889 0.9421894850335444
lfemur 6.108102690639672 -2.5841621190808004 -28.360769745659425
ltibia 39.51405984561887
lfoot 4.107727589056802 -13.807588018140656
ltoes -9.586430391149543
rfemur -41.31645367360849 0.8285884330417974 23.275358008083145
rtibia 36.855071456733135
rfoot 9.36748938774753 -0.2766670699449474
rtoes -7.954828195227665
lowerback 12.68264168709526 -1.7207618005208791 -2.2401345813534106
upperback -1.79026449892838 -1.7183812947606627 1.7228303622597902
thorax -9.164196897409795 -0.5825291146557152 2.4458665349425677
lowerneck -19.964130984164548 -3.360628845825078 -2.153024232669433
upperneck 16.915561815509967 -5.3782535130002005 2.5205146423171314
head 8.636608503788565 -2.24624063121673 0.554145327035777
lclavicle -1.952177854797882e-15 1.1013510665920296e-15
lhumerus -37.385613904834656 -12.018519045956669 96.85626338427437
lradius 117.23056041071922
lwrist 46.141160637813414
lhand -17.058422084254584 4.905010383219598
lfingers 7.125020000000001
lthumb 9.019609538460005 34.63242207402633
rclavicle -1.9521588892393925e-15 1.101365966976717e-15
rhumerus -61.43538356267439 8.774579767891382 -99.41871430056332
rradius 107.95752374774582
rwrist -16.093751054569356
rhand -24.03591617847429 -142.0171928526542
rfingers 7.125020000000001
rthumb 2.287221733100062 16.656535158617352
